<svg width="24" height="28.48" viewBox="0 0 75 89" fill="none"><path d="M62.64 43.087L52.47 87.63a1.124 1.124 0 001.084 1.377h20.327a1.12 1.12 0 001.084-1.377L64.802 43.087c-.26-1.157-1.894-1.157-2.161 0zM6.342 59.977L.028 87.63A1.115 1.115 0 001.112 89h12.634c.71 0 1.239-.667 1.084-1.37L8.517 59.977c-.275-1.157-1.908-1.157-2.175 0z" fill="#00E5E5"/><path d="M20.221 26.204L6.194 87.623A1.124 1.124 0 007.278 89h28.034a1.12 1.12 0 001.083-1.377L22.382 26.204c-.267-1.157-1.9-1.157-2.16 0z" fill="#006EFF"/><path d="M43.75.866L23.944 87.623A1.124 1.124 0 0025.028 89h39.604a1.12 1.12 0 001.084-1.377L45.911.866c-.26-1.157-1.894-1.157-2.161 0z" fill="#006EFF"/><path d="M30.645 34.632l-12.1 52.99A1.124 1.124 0 0019.63 89h24.19a1.12 1.12 0 001.084-1.377L32.812 34.632c-.267-1.158-1.9-1.158-2.167 0z" fill="#00E5E5"/></svg>